<svg version="1" xmlns="http://www.w3.org/2000/svg" width="965.333" height="965.333" viewBox="0 0 724.000000 724.000000"><path d="M106.3 4.8c-2.6.4-11.5 10.1-10.6 11.5.3.6.1.7-.5.4-1.2-.8-6.5 5.1-5.7 6.3.3.5 0 1.2-.6 1.6-.8.5-.9.3-.4-.6.5-.8.4-1.1-.2-.7-2.6 1.6-16.4 20.8-15.7 21.9.4.7.3.8-.4.4s-1.7.3-2.4 1.8c-.6 1.4-1.5 2.6-2 2.6-.4 0-.8.7-.8 1.5s-.4 1.5-1 1.5c-1.3 0-4.2 5.8-3.5 7 .3.6-.1.7-.9.4-.9-.3-1.6-.2-1.6.4 0 .5-1.6 3.3-3.5 6.1-3.7 5.4-7.5 11.8-7.5 12.7 0 .3.5.2 1.2-.2.7-.5.8-.3.4.5-.5.7-1 1-1.3.7-.3-.3-1 0-1.7.7-1.4 1.6-7 13-6.8 13.9.1.5-.2.8-.6.8-1.4 0-10.5 18.7-9.7 19.9.3.6 0 .9-.8.5-1.6-.6-3.2 3.9-2.1 5.8.4.7.3.8-.4.4s-1.2-.3-1.2.3-1.5 4.2-3.4 8.1c-2 4.1-3 7-2.3 7 .7 0 .4.5-.5 1.1-2 1.1-4 7.4-3.2 10.3.3 1.2 3.7 4.6 7.5 7.6 3.9 3 8.4 6.7 10.2 8.2 1.7 1.4 3.5 2.4 3.9 2.2.5-.3.7 0 .6.8-.2.7.5 1.2 1.4 1.2 1-.1 1.6.2 1.3.6-.7 1.1 6.3 6.2 7.5 5.5.6-.4.7.1.3 1.1-.5 1.4-.3 1.6 1.1 1.1.9-.4 1.5-.3 1.1.2-.3.5 1.4 2.4 3.7 4.2 2.4 1.8 5.4 4.3 6.7 5.7 1.4 1.4 3.1 2.2 4.2 1.9 1.1-.3 2.2 0 2.6.5.4.7.1.8-.7.3-.7-.4-1.1-.4-.9.2.5 1.3 12.9 11.6 12.9 10.7 0-.4.9.5 2.1 2 1.1 1.4 2.4 2.6 2.9 2.6s2.3 1.3 4.1 3c1.8 1.6 3.6 2.7 4.1 2.4.5-.3.7-.1.6.4-.3.9 6.1 6.2 19 16.1 1.8 1.3 5.1 4.1 7.4 6.2 2.5 2.3 4.9 3.7 5.8 3.3.8-.3 1.1-.2.7.2-.8.8 1.1 3.4 2.5 3.4.5 0 .6-.6.2-1.3-.4-.6-.3-.8.1-.4.5.4 1 1.5 1.1 2.5.2.9.8 1.8 1.4 2 .8.3 3.7 2.5 10.6 8.1.7.6 1.5.7 1.8.4.3-.4.6.1.6.9 0 1.7 2.6 3.2 4 2.3.5-.3 1.2 0 1.6.6.4.8.3.9-.4.5s-1.2-.3-1.2.2 1.2 1.8 2.8 2.7c1.5 1 3.9 2.9 5.4 4.3 2.4 2.2 2.9 2.3 4.5 1.1 1.6-1.3 1.7-1.2.5.2-1.1 1.5-.7 2.1 3 5 2.4 1.8 4.5 3.6 4.8 3.9 2.1 2.2 7.9 5.8 8.5 5.2.3-.4.5 0 .3.8-.2.9.4 1.4 1.4 1.4 1-.1 1.6.2 1.3.6-.7 1.2 3.6 4.1 4.8 3.3.6-.3.7-.1.3.5-.3.6.8 2.1 2.6 3.3 1.8 1.3 3.5 2.7 3.6 3.1.2.5.7.6 1.1.3.5-.2.8.5.7 1.6-.1 1.5-2 3.3-6.3 5.9-3.4 2-6 3.9-5.8 4.2.3.3-.1.5-.8.5-1.4 0-14.8 7.8-14.5 8.4.2.2.1.3-.1.2-1-.6-4.1 1.9-3.5 2.9.4.7.3.8-.5.4-1.3-.8-25.2 12.9-27.2 15.7-.3.5-1 .9-1.5 1-.5.1-.8.6-.6 1 .1.5-.1.6-.6.3-1.5-.9-12.8 5.5-11.6 6.6.3.3-.3.5-1.3.4-1 0-1.7.4-1.6 1.1.2.7-.3 1-1.1.7-.8-.3-2.4.4-3.5 1.5-1.2 1.2-2.3 2.1-2.6 2.1-2 .1-3.5 1.5-3 2.8.4 1.1.2 1.2-.8.4-1-.9-1.9-.7-3.5.9-1.2 1.1-2.2 1.7-2.2 1.4 0-1.2-8 3.9-11.8 7.5-.9.8-1.7 1.3-2 1.1-.8-.9-8.2 4.1-7.6 5.1.5.7.1.9-.9.5s-2 0-2.5.9-1.2 1.5-1.5 1.5c-3-.4-3.7.1-3.7 2.8 0 2.9 2.2 6.1 4.1 6.1.5 0 .8.4.6.8-.3 1 12.4 16.2 13.5 16.2.4 0 .8.5.8 1.1 0 .6.6 1.6 1.3 2.3 1.4 1.5 7.1 8.2 16.2 19.1 9 10.7 13.9 16.3 13 14.6-.6-1-.4-1.2.4-.7.6.4.9 1.1.7 1.5-.3.4 1.1 2.5 3.1 4.7 1.9 2.1 4.2 4.9 5 6.1.9 1.3 2 2 2.6 1.6.6-.3.7-.1.3.5-.4.7-.2 1.2.3 1.2.6 0 1.1.4 1.1 1 0 .5.8 1.9 1.8 2.9 3.6 3.9 8.8 10 11.2 13.1 1.4 1.7 3.4 4.2 4.5 5.4 1.2 1.2 3.8 4.4 5.9 7 3 3.5 4.2 4.4 4.9 3.4.6-.9.7-.8.3.5-.3 1 0 2.4.7 3.1.6.7 2.7 3.1 4.6 5.4 1.8 2.3 3.8 3.9 4.4 3.5.5-.3.7-.1.4.4-.4.6.7 2.5 2.3 4.3 1.7 1.8 3 3.4 3 3.7 0 .3 1.2 1.8 2.7 3.3 2.2 2.4 3 2.7 4.3 1.7 1.3-1.1 1.3-1 .1.6-1.3 1.6-1.1 2.1 1.7 4.9 1.8 1.7 3.2 3.5 3.2 4 0 .6.7.8 1.4.5 1-.4 1.3-.1 1 .7-.3.8.3 2 1.4 2.7 1.1.8 2.1 1.8 2.2 2.4.7 2.3 8.3 10.4 9.3 9.8.6-.3.7-.1.3.6-.4.6 0 1.4.8 1.7.9.3 1.6 1.2 1.6 2s.9 1.9 2 2.6c1.1.7 2 1.7 2 2.3.1 1.6 8.7 10.5 9.4 9.7.4-.3.4.1 0 1.1-.4 1.2-.1 1.7 1.1 1.7 1 0 1.3.5.9 1.2-.5.7-.2.9.8.5 1-.3 1.5 0 1.4 1.1 0 .9.5 1.6 1.2 1.4.8-.1 1.1.2.8.7-.4.5.2 1.4 1.1 2 1 .6 1.4 1.1.9 1.1-.5 0-.3.7.4 1.5s1.7 1.2 2.4.8c.6-.3.8-.3.4.2-.7.7 2.3 5 6.9 10 1 1.1 4.7 5.5 8.2 9.7 3.6 4.2 6.8 7.5 7.3 7.2.4-.3.5.2.2 1-.6 1.4.5 2.1 2.8 1.7.4 0 .5.5.3 1.2-.3.6 1.2 3.1 3.4 5.4 2.1 2.4 5.4 6.3 7.2 8.7 2.2 2.8 3.8 4.1 4.5 3.5.7-.6 1-.1 1 1.4-.1 1.3.4 2.1 1.2 1.9.8-.1 1.1.2.8.7-.4.5.2 1.6 1.2 2.3 1.1.7 1.9 1.5 1.9 1.8-.1 1.3 2.9 5 4 5 .6 0 1.4.8 1.8 1.7.3 1 2.3 3.8 4.5 6.3 2.2 2.4 4 4.8 4 5.2 0 .4.7.8 1.7.8.9 0 1.3.3 1 .6-.3.4 1.2 2.7 3.3 5.2 2.2 2.5 4 4.9 4 5.5 0 .5.6.4 1.4-.2 1.2-1 1.3-.8.9.8-.4 1.5-.1 2.1 1.1 2.1 1 0 1.5.3 1.3.7-.7 1.1 1.9 3.3 2.9 2.5.4-.4.4-.1 0 .5-.4.7.2 2.3 1.5 3.5 1.1 1.3 2.8 3.3 3.6 4.5.8 1.3 1.9 2 2.4 1.7.5-.3.8-.2.7.3-.5 1.4 7.4 10.3 8.5 9.6.6-.3.7-.1.3.5-1 1.7 4.3 7.2 6.3 6.5 1.3-.4 1.3-.3.2.5-1.2.9-1.2 1.3-.2 2.6.7.9 1.8 1.3 2.5.9.6-.3.8-.3.4.2-.4.4-.3 1.4.3 2.2 1 1.1 1.5 1.1 2.8.1 1.4-1.2 1.5-1.1.1.6-1.3 1.6-1.2 2 .6 3.5 1.1.9 2.7 2.6 3.5 3.9.9 1.2 3.2 3.9 5.1 6 1.8 2 4.5 5.1 5.8 6.9 1.3 1.8 2.8 2.9 3.3 2.6.6-.3.7-.2.4.4-.3.5.5 2.1 1.9 3.6 1.3 1.4 2.4 3.1 2.4 3.7 0 .5 1.1 1 2.4 1 1.7 0 3.9-1.8 7.9-6.9 3.1-3.8 5.3-7.2 4.9-7.6-.4-.5-.2-.5.4-.2 1.5.9 3.8-1.9 2.8-3.4-.4-.7-.3-.9.3-.6 1.2.8 4.6-2.7 3.6-3.6-.3-.4.2-.7 1.2-.7s1.6-.3 1.2-.6c-.3-.4.2-1.4 1.3-2.3 4.5-3.9 20.9-24.4 20.3-25.3-.3-.6-.1-.8.4-.5 1.3.8 4.7-2.9 3.8-4.2-.3-.7 0-.8.9-.5.9.3 1.6.1 1.6-.5 0-.7 1.1-2.2 2.5-3.5 1.4-1.3 2.5-2.6 2.5-2.8 0-.3 2.2-3 4.9-5.9 2.7-3 5-5.9 5.2-6.4.1-.6 1-1.6 2.1-2.3 1-.7 1.6-1.8 1.2-2.3-.3-.5 0-.8.8-.7.7.2 1.2-.5 1.2-1.4-.1-1 .3-1.6 1-1.5.6.1 1-.4.8-1.1-.1-.8.1-1.1.6-.8 1.1.7 4.4-3.2 3.7-4.4-.3-.6.1-.7.9-.4.9.3 1.6.2 1.6-.2 0-.5 3.8-5.4 8.4-10.9 4.7-5.5 8.2-10.4 7.9-11-.4-.5-.3-.7.2-.3 1.4 1.3 3.7-1.3 2.5-2.8-.9-1-.7-1.1.9-.7 1.2.3 2.1.1 2.1-.5s1.8-3.1 4.1-5.6c2.2-2.4 3.9-4.7 3.7-5.1-.1-.3.5-1.1 1.5-1.6.9-.6 1.4-1.5 1.1-2.1-.4-.6-.3-.8.3-.5 1.1.7 6-5 5.5-6.5-.1-.5.2-.7.7-.4.9.6 6.8-6.4 6.3-7.7-.1-.4.4-.6 1-.5.8.2 1.2-.6 1-2.2-.1-1.6.1-2 .6-1.2.6.9 1.4.6 3-1.3 1.2-1.4 2.2-2.7 2.3-2.9 0-.3 2.3-2.8 4.9-5.7 2.7-2.9 4.7-5.6 4.4-6-.2-.4.6-.9 1.8-1.2 1.9-.5 2-.8.7-2.3-1-1.4-1.1-1.6-.1-1 1.2.7 5.2-2.2 5.2-3.8 0-.2 1.5-2 3.3-3.8 1.7-1.9 5-5.6 7.2-8.3 2.2-2.7 5.6-6.6 7.5-8.6 4.2-4.4 6.2-7.6 5.2-8.2-.4-.2-.2-.2.5-.1 1.5.4 3.4-2 3-3.7-.2-.8-.2-1 .1-.6.7 1.4 6.1-4.4 5.5-5.9-.4-1 0-1.2 1.1-.8.9.3 1.6.2 1.6-.3 0-.6 1.2-2.3 2.6-3.9 4.5-5.1 6.4-8.1 5.6-8.9-.4-.5-.2-.5.5-.1 1.3.7 9-7.9 8.5-9.6-.1-.5.2-.7.7-.4.5.3 2.2-1.1 3.7-3.2 2.4-3.2 4.7-5.8 9.9-11.6 2.9-3.2 7-9.2 6.7-9.9-.1-.5.1-.6.5-.4.8.5 3-1.8 10.3-10.3 1.6-1.9 2.8-4 2.5-4.7-.2-.7.1-1 .8-.7.7.2 2.3-1.2 3.6-3.1 1.3-1.9 2.8-3.5 3.3-3.5s.6-.5.3-1c-.3-.6-.1-1 .5-1s.8-.5.4-1.2c-.4-.6-.3-.8.3-.5 1.3.8 5.5-4.1 4.7-5.5-.4-.6-.3-.8.3-.5.6.4 2.1-.5 3.3-1.8 1.3-1.4 2.1-2.5 1.8-2.5-.3 0 1.2-1.9 3.3-4.1 2.1-2.3 3.6-4.6 3.2-5.2-.3-.6-.1-.7.5-.3.6.4 1.9-.5 2.9-2.1 1-1.5 2.7-3.6 3.8-4.8 6.3-6.7 9.5-10.9 9.1-12.2-.3-.8-.1-1.1.5-.8.9.6 8.8-7.1 8.9-8.6 0-.3 2-2.8 4.5-5.5 3.4-3.6 4.5-5.6 4.3-7.4-.2-1.4-.9-2.5-1.8-2.5-.8 0-1.4.6-1.2 1.3.1.8-.2 1.1-.8.7-.8-.5-.8-1.1 0-2 .8-1 0-1.9-3.6-3.9-2.5-1.4-5.1-2.3-5.7-1.9-.6.3-.7.1-.3-.5.4-.7-.3-1.6-1.7-2.1-1.4-.6-2.8-1.5-3.2-2.1-.3-.5-1.1-.8-1.6-.5-.5.4-.9.2-.9-.4 0-1.1-7.4-5.5-8.6-5.2-.4.2-1-.1-1.3-.6-1-1.4-17.5-11.6-18.8-11.6-.7 0-1.3-.4-1.3-.8 0-1.2-9.2-5.9-10.3-5.2-.6.4-.7.1-.2-.7.6-1 .4-1.2-.8-.7-.9.3-1.6.2-1.4-.4.1-.5-1.1-1.7-2.8-2.7-1.6-.9-3.3-2.1-3.6-2.6-.4-.5-1.2-.5-1.9-.1-.9.6-1.1.4-.5-.5.6-1 .4-1.2-1.1-.6-1 .4-1.5.4-1.1 0 .9-.9-4.3-4.5-5.5-3.8-.4.3-.8.1-.8-.4 0-.6-1.6-2-3.6-3.1-3-1.8-3.9-1.9-5.3-.9-1.4 1.1-1.4 1.1-.3-.4 1.1-1.4 1.1-1.8-.5-2.6-1-.5-2.4-.7-3.1-.5-.7.3-1.1-.1-1-.9.2-.7-.3-1.2-.9-1.1-.7.2-1.3-.1-1.3-.6 0-1.2-12.1-7.7-13.5-7.3-.5.2-.7 0-.3-.4.7-.7-9.6-7.4-11.4-7.4-.5 0-.6-.5-.3-1 .3-.6 0-1-.7-1s-.2-.7 1-1.6c1.2-.8 1.9-2.1 1.6-2.7-.4-.7-.4-.9.1-.5.7.6 9.5-4.9 9.5-5.9 0-.2-.5-.1-1.2.3s-.8.3-.4-.4c.4-.6 1.4-.8 2.3-.5 1.3.5 1.5.2 1-1.1-.4-1-.3-1.5.3-1.1.6.4 3.4-1.3 6.3-3.7 2.8-2.4 5.7-4.6 6.2-5.1.6-.4 2.3-1.8 3.8-3.1 1.6-1.3 10.2-8.1 19.2-15.2s16.2-13.4 16-14.1c-.2-.7.2-1 .9-.7.8.3 2.8-.8 4.5-2.5 1.7-1.7 3.1-2.8 3.1-2.4 0 .3.7 0 1.5-.7s1.2-1.7.8-2.4c-.3-.6-.3-.8.2-.4.8.8 8.7-5 11.3-8.1.7-.9 1.6-1.6 2-1.6.4 0 3.1-1.9 6-4.3 3-2.3 5.7-4.2 6.1-4.2.4 0 1.4-1.1 2.1-2.5.7-1.4 1.6-2.3 1.8-2 .9.9 3.2-1.7 2.5-2.8-.3-.6-.1-.7.5-.3.6.4 1.9 0 2.9-.8s5.1-4.2 9.1-7.5c4.1-3.4 8.7-6.9 10.3-7.8 1.6-1 2.7-2.3 2.5-3-.3-.7.1-1 1-.6.9.3 1.4-.1 1.4-1.3 0-.9.3-1.5.6-1.1.4.3 2.3-.6 4.3-2.1 6-4.6 7-5.5 6.5-6.4-.3-.5-.1-.7.4-.6 1.6.5 11.3-7.3 10.5-8.5-.3-.6-.1-.7.5-.3.7.4 2.2-.3 3.5-1.6 1.3-1.3 2.7-2.5 3.2-2.6.6-.2.9-.9.7-1.5-.2-.7 0-.9.4-.5s1.3.3 2.1-.3c1.1-1 1.1-1.5.1-2.8-1.2-1.4-1.1-1.5.5-.2s2.2 1 5.8-2.5c3.4-3.3 3.9-4.3 3.5-6.9-.8-4.1-6.8-17.5-7.8-17.5-.4 0-.8-.9-.8-2s-.4-2.8-.8-3.8c-10-20.4-13.9-27.9-14.9-29-.6-.6-1.5-2.1-1.8-3.2-.4-1.1-1.1-1.7-1.7-1.4-.7.4-.8.2-.4-.5.5-.7-.8-3.8-2.8-7.2-2-3.3-3.6-6.3-3.6-6.5 0-1.5-4.8-7.3-5.5-6.6-.5.4-.5.2-.2-.4.4-.7-.9-3.6-2.9-6.5-3.6-5.3-6.6-9-4.9-6 .5.9.4 1.2-.3.7-.6-.4-.8-1.4-.5-2.3.5-1.2.3-1.4-.7-.8-.9.5-1.1.4-.6-.4.5-.7-.1-2-1.3-3-1.1-1-1.8-2.1-1.4-2.5.3-.3.2-.6-.4-.6-.6 0-1.6-1.3-2.3-3-.7-1.6-1.6-2.7-2.1-2.4-.5.3-.9 0-.9-.7 0-1.1-6.7-10-10.5-14-.8-.9-1.5-1.8-1.5-2.1 0-.3-1.6-2.3-3.6-4.4-2-2.2-3.3-3.2-2.9-2.4.5.9.4 1.2-.1.7-.9-.8-1-1.2-1.3-3.9 0-.6-.4-.8-.8-.5-.3.4-1.1-.3-1.8-1.6-.6-1.2-1.7-2.1-2.4-1.9-.7.1-1-.1-.7-.6 1.1-1.8-4-5.2-7.8-5.4-2.9-.1-4.3.5-6.2 2.5-1.3 1.4-2.4 3.3-2.4 4.1 0 1-.6 1.3-1.5 1-.8-.4-1.5-.2-1.5.4 0 .5-1.7 2.9-3.8 5.2-2 2.4-3.6 4.7-3.4 5.2.1.5-.2.7-.7.4-1-.6-6.3 5.8-5.6 6.8.3.3.2.4-.2.1-.9-.7-5.3 3.6-5.3 5.2 0 .7-.5 1.3-1 1.3-.6 0-2.2 1.2-3.5 2.7-2.6 3-3.3 4.9-1.3 3.7.7-.4.8-.3.4.4-.4.6-1.2.9-1.9.7-.7-.2-2.9 1.7-4.9 4.3-2.1 2.6-5.6 6.6-7.8 8.9-2.2 2.4-3.8 4.8-3.6 5.5.1.7.1.9-.2.4-.4-.7-11.2 9.9-11.2 11 0 .2-.8 1.2-1.7 2.2-5.6 5.8-11.8 13.5-11.6 14.3.2.5 0 .8-.5.8-1.9-.3-3.2.2-3.2 1.4 0 .7-1.6 2.8-3.5 4.7-2 1.9-3.3 4-3 4.8.2.7 0 1-.5.7-.5-.3-2.3.9-3.9 2.7-2.3 2.6-2.7 3.6-1.8 4.8.9 1.2.9 1.3-.3.3-1.1-1-1.7-.9-3.2.4-2.3 2.1-2.4 4 0 2.2 1.5-1.3 1.6-1.2.3.3-.7 1-1.7 1.6-2.1 1.3-1.1-.7-9.1 9-8.2 10 .4.5.2.5-.4.2-1.4-.8-3.7 1.7-2.6 2.7.4.4 0 .6-.8.4-1.1-.2-1.4.4-1.3 2.2.1 1.4-.1 1.9-.4 1.2-.4-1-.9-.9-2.4.4-1 .9-1.6 2.2-1.2 2.8.3.6.2.8-.2.3-1-.9-4.5 2.1-4.5 4 0 .7-.5 1.3-1.1 1.3-.5 0-.7.5-.3 1.2.4.6.3.8-.3.5-1.3-.8-7.5 6.2-6.6 7.6.3.5.1.7-.4.4-1.4-.9-4.7 2.9-3.7 4.4.5.8.3 1-.6.4-.7-.4-1.5-.3-1.9.2-.3.6-3.5 4.3-7.1 8.3-3.6 4-6.4 7.6-6.3 8.1.2.5-.5.9-1.4.9-.9 0-1.4.3-1.1.6.3.3-1.3 2.4-3.6 4.7-2.2 2.3-7 7.6-10.6 11.6-3.6 4.1-7 8-7.7 8.7-.7.6-.9 1.4-.6 1.8.4.3.1.6-.5.6-1.3 0-6.2 5-6.2 6.3 0 .5-1.2 1.8-2.6 2.9-1.4 1.1-2.3 2.6-2 3.4.3.7 0 1.1-.7.8-.7-.2-3 1.7-5.2 4.3-2.2 2.7-4.3 4.9-4.7 5.1-.4.2-.8.7-.8 1.2 0 .4-1.9 2.8-4.2 5.2-9 9.2-16.3 18-16.2 19.4.1.8-.3 1.1-.8.8-.9-.6-6.9 5.7-6.9 7.3 0 .4-.9 1.1-2.1 1.6-1.8.6-1.8.9-.7 2.4 1.2 1.4 1.2 1.6 0 .9-.9-.6-2.4.3-4.7 2.8-1.8 2-3 3.6-2.6 3.6.3 0-.4.7-1.7 1.6-1.8 1.3-2 1.9-1 2.6 1.1.8 1 .9-.3.5-2-.7-4 1.5-3.2 3.6.3.8.1 1.8-.5 2.2-.7.3-.8 0-.5-.9.8-2.2-1.2-2-2.2.1-.4 1-.6 2.1-.6 2.5.1.5-.4.7-1.1.5-.6-.1-1.1.6-1.1 1.5.1 1.1-.4 1.4-1.4 1-1.1-.4-1.4-.1-.9 1.2.4 1 .3 1.5-.3 1.1-1.1-.7-6.9 5.4-7 7.2 0 .6-.9 1.1-1.9 1-1.4-.1-1.7-.5-1-1.3s.1-1.9-2-3.7c-1.7-1.4-2.8-2.7-2.5-2.9.6-.7-5.9-6.3-6.9-6-.5.1-.6-.2-.2-.8.3-.5.1-1-.5-1s-.9-.4-.6-.8c.7-1.2-6.9-8.4-7.9-7.5-.4.5-.5.3-.2-.4.4-.6.2-1.7-.5-2.5-.7-.7-4.2-4.7-7.8-8.8-9-10.4-10.7-12-11.6-11.2-.4.4-.4.2-.1-.4.3-.6-1-2.8-3-5-1.9-2.1-5.1-5.8-7-8.1-2-2.4-4-4-4.7-3.6-.6.3-.8.3-.4-.2.4-.4.2-1.3-.5-2-.7-.8-3-3.6-5.2-6.4-2.2-2.7-4.6-5-5.4-5.1-.8 0-1.2-.3-.8-.6.9-.9-3.5-5.4-4.6-4.7-.6.3-.7.1-.3-.5.4-.7-1.5-3.5-4.7-6.7-3-3-5.2-5.5-4.9-5.5.3 0-.9-1.6-2.8-3.5-1.8-1.9-3.7-3.2-4.1-2.9-.4.2-1.1-.1-1.5-.7-.4-.8-.3-.9.4-.5s1.2.3 1.2-.1c0-1.1-4.3-4.8-5.3-4.5-.4.1-.6-.2-.5-.8.2-.5-2-3.5-4.9-6.7-2.8-3.2-6.7-7.8-8.7-10.1-2-2.4-3.6-4-3.7-3.5 0 .4-.4-.2-1-1.5-.5-1.4-1.3-2-2-1.6-.7.4-1 .3-.6-.2.8-1.4-2-4.7-3.4-3.8-.8.4-1 .3-.5-.4.4-.7.2-1.2-.5-1.2s-1-.3-.6-.6c.7-.7-4.4-6-5.5-5.6-.4.1-.7-.2-.6-.6.2-.5-1.2-2.7-3.1-5-2.9-3.6-3.6-4-5-3-1.4 1.1-1.4 1.1-.3-.4 1.1-1.4.8-2.2-2.5-5.9-7.4-8.3-8.6-9.4-9.5-9.1-.5.1-.7-.2-.3-.8.8-1.2-6-8.1-7.1-7.2-.4.4-.4.2-.1-.5.9-1.5-2.1-4.5-3.5-3.7-.7.4-.8.2-.4-.5s-.9-2.9-3.3-5.4c-2.2-2.3-4.9-5.4-6.1-7-1.2-1.5-2.6-2.4-3.2-2.1-.6.4-.8.2-.4-.4.3-.6-.4-1.8-1.6-2.6-1.2-.9-1.9-1.6-1.4-1.6s.1-.9-.9-2-2.2-1.7-2.6-1.4c-.5.3-.6-.3-.2-1.2.5-1.3.3-1.6-1-1.1-1.1.4-1.4.2-1-.9.3-.9-.1-1.4-1.2-1.4-.9 0-1.4-.4-1-.9.3-.5-.5-1.8-1.7-2.8-1.3-1-3.5-3.4-4.9-5.3-1.5-1.9-5.5-6.6-9.1-10.3-3.5-3.7-6.2-6.9-6.1-7.1.2-.2-.6-1.2-1.9-2.2-1.3-1.1-4.3-4.3-6.6-7.2-2.4-2.8-4.8-4.9-5.3-4.6-.5.3-.8 0-.7-.8.2-.7-.2-1.2-.8-1.1-.7.1-1.1-.5-1-1.5 0-.9-.5-1.6-1.2-1.4-.6.1-1.1-.2-1-.7.2-.4-2.4-3.9-5.7-7.6-3.3-3.7-7.1-8-8.4-9.6-2-2.4-2.6-2.7-4-1.7-1.4 1.1-1.4 1.1-.4-.3 1-1.3.8-2.1-1.3-4.7-1.5-1.7-3.1-2.9-3.6-2.6-.4.3-.7.1-.6-.4.4-1.1-6.3-9.4-7-8.8-.2.3-1.2.2-2.1-.2-.9-.5-2.6-.6-3.8-.4zm494.4 29.7c0 .8-.4 1.2-.9.9-.5-.3-.6-1-.3-1.5.9-1.3 1.2-1.1 1.2.6zM571.5 68c-.3.5-1.2 1-1.8 1-.7 0-.6-.4.3-1 1.9-1.2 2.3-1.2 1.5 0zm-62.8 70.5c0 .8-.4 1.2-.9.9-.5-.3-.6-1-.3-1.5.9-1.3 1.2-1.1 1.2.6zM351 276c0 .5-.2 1-.4 1-.3 0-.8-.5-1.1-1-.3-.6-.1-1 .4-1 .6 0 1.1.4 1.1 1zm19 22.5c.7.9 1.9 1.4 2.7 1.1.8-.3 1.2-.2.9.3-.6 1 10.2 9.4 12.1 9.4.7 0 1.1.3.9.6-.2.3 2.8 3 6.6 5.9 3.9 2.9 6.7 4.7 6.2 4-.4-.7.8.2 2.6 2 1.9 1.8 6.8 5.6 11 8.4 4.1 2.9 8 5.7 8.6 6.3.6.5 2.2 1.7 3.4 2.5 1.2.8 3.6 2.7 5.4 4.2 1.7 1.5 3.7 2.6 4.4 2.3.7-.3 1.1-.1.8.3-.4.6 19.2 16 21.8 17.1.8.3 1.9 1.2 6.8 5.3 1.1 1 2.4 1.5 2.8 1.3.4-.3 1 .2 1.3 1 .4.8 2.5 2.7 4.9 4.2 2.4 1.5 4.9 3.4 5.6 4.1.8.7 1.8 1 2.3.6.5-.3.8 0 .7.8-.2.7.5 1.2 1.4 1.2 1-.1 1.6.2 1.3.6-.7 1.1 10.5 9.1 11.7 8.4.6-.4.8-.2.4.4-.3.5 1 2 2.9 3.2 2 1.2 4.1 2.7 4.8 3.4 3.4 3.3 7.1 5.5 8.1 4.9.6-.3.8-.2.3.2-.9 1 8.2 7.7 9.4 6.9.5-.3 0 1.1-1.2 3-1.1 1.9-1.7 4.1-1.3 4.7.4.7.3.9-.3.6-.6-.4-1.6.6-2.2 2.1-.6 1.5-4.4 9.1-8.5 16.9-5.2 10.2-7 14.5-6.2 15.3.8.8.6.9-.8.4-1.6-.6-1.8-.4-1.2 1.1.4 1.1.4 1.6 0 1.2-.8-.7-1.2 0-14.8 26.8-5.3 10.4-9.4 19.5-9.2 20.2.3.7 0 1.2-.7 1-.7-.1-1.2.8-1.1 2 0 1.2-.3 2-.7 1.7-1.2-.7-3.1 3.4-2.3 4.8.4.6.3.8-.3.5-1.2-.8-7.6 12.1-6.7 13.5.4.6.3.8-.3.5-1.3-.8-3.6 4.1-2.7 5.5.4.6.2.8-.3.5-1-.6-4.2 4.6-4.1 6.7 0 .5-.5 1.2-1.2 1.6-.6.4-1.2 1.6-1.3 2.8 0 1.1-.5 1.8-1.1 1.5-.6-.4-.6.1-.2 1.3.4 1 .4 1.5 0 1.1-.4-.4-1.8 1.3-3.1 3.9-2.6 5.2-2.8 5.8-1.1 4.8.7-.4.8-.3.4.5-.4.6-1.1.9-1.5.7-.5-.4-11.2 19.3-11.6 21.4 0 .3-.9 1.7-1.9 3.2-.9 1.5-1.9 3.3-2 4.1-.1.8-.7 2.1-1.2 2.8-1.1 1.5-2.6 5.1-2.4 5.8.1.2-.4.7-1.1 1.2-1 .6-1 1.1.2 2.6 1.2 1.6 1.2 1.7-.2.6-1.3-1.1-1.9-.6-3.8 3.3-1.8 3.8-2 4.9-.9 6.3 1.2 1.4 1.1 1.5-.4.2-1.7-1.2-2-.9-1.7 1.5 0 .4-.3 1-.8 1.3-1.8 1.2-6.5 10.9-5.8 12 .3.6.3 1-.2.9-.4-.2-.9.2-1.1.7-.2.6-.9 1.7-1.5 2.5-2.4 3-3.8 6.1-3.2 7 .4.6.1 1-.5 1s-1.6 1.2-2.3 2.8c-.7 1.5-2.6 5.2-4.2 8.2-1.6 3-3 5.7-3 6-.2.9-4 8.5-4.5 9-.3.3-2.9 5.2-5.8 10.9-4.1 8.1-5 10.6-4 11.4 1 .7.9.8-.3.4s-2.6 1.5-5.4 7.3c-2.1 4.3-3.6 8.1-3.4 8.4.2.3-.5 1.1-1.5 1.9-1.2.9-1.7 2-1.3 3.1.4.9.3 1.5-.2 1.2-.5-.3-1.4.8-2.1 2.4-1.2 2.9-3 4.1-3 1.9 0-.5-.4-.7-1-.4-.5.3-.7 0-.4-.8.3-.8-.2-2.2-1.1-3.1-.9-.9-1.4-1.6-1-1.6.8 0-2.6-6.4-3.9-7.2-.6-.4-.8-.8-.3-.8 1 0-10.2-22-11.3-22-.4 0-.7-.6-.7-1.3.2-1.2-4.1-10.7-5.3-11.7-.3-.3-1.6-2.8-2.9-5.7-1.3-2.9-2.8-5-3.2-4.7-.5.3-.6-.3-.2-1.2.4-1.1.3-1.5-.5-1-.6.3-1.4.1-1.8-.5-.4-.8-.3-.9.4-.5 1.6 1 1.5.3-.5-3.8-.9-1.9-2.1-3.2-2.6-2.9-.6.3-.7.1-.3-.6.7-1.1-8.8-19.9-10.7-21.2-.5-.3-.8-.8-.6-1 .5-.9-1.3-4.9-2.2-4.9-.6 0-.8-.4-.5-.9.3-.5-.7-3.1-2.2-6-2.3-4.2-3.1-4.9-4.2-3.8-1.2 1-1.2.9-.2-.4.9-1.2.5-2.8-2-8-1.7-3.5-3.6-6.7-4.2-7.1-.6-.4-.7-.8-.3-.8 1.1 0-4.5-10-5.6-10-.5 0-.5-.4-.2-1 .3-.5-.5-2.9-1.8-5.2-2.5-4.3-20.1-38.5-26.1-50.6-1.7-3.5-3.5-6-4-5.5-.5.4-.6.3-.3-.4 1-1.6-.3-4.4-1.6-3.6-.6.3-.7.1-.3-.5 1.1-1.9-1.2-5.2-3.2-4.6-1.3.5-1.4.4-.3-.4 1.7-1.2.7-4.7-1-3.6-.8.5-.9.3-.5-.5.9-1.4-1.2-7.1-2.5-7.1-.5 0-.8-.3-.7-.8.4-1.1-4.5-10.2-5.4-10.2-.5 0-.7-.4-.3-.9.6-1.1-2.9-7.4-3.7-6.6-.2.3-.5-.1-.5-.8 0-2.5-4.6-11.6-5.6-11-.6.3-.7.1-.4-.4.9-1.4-1.7-6.5-2.8-5.5-.5.4-.5.2-.1-.5s-1-4.4-3-8.3c-3.2-6.1-3.9-6.8-5.3-5.7-1.4 1-1.4 1-.3-.4 1-1.3 1-2.2.1-4.3-.7-1.4-1.7-2.6-2.2-2.6-.6 0-.8-.3-.4-.6.9-.9-9.3-20.5-10.4-19.9-.5.3-.6-.1-.3-1 .4-.8.1-2.1-.5-2.9-.9-1.1-.8-1.4.6-1.2 1 0 1.7-.5 1.5-1.2-.1-.8.2-1.1.8-.7.5.3 2.1-.4 3.4-1.7 1.3-1.3 2.9-2.4 3.5-2.6 2.3-.5 11.6-8.5 11.5-9.9-.1-1 .2-1.1 1-.4.9.8 1.8.5 3.2-.7 1-1 7.6-6 14.6-11.1s13.9-10.4 15.3-11.7c1.4-1.3 2.9-2.5 3.3-2.6.4-.2.6-.7.4-1.1-.1-.5.2-.6.7-.3.5.3 2-.3 3.4-1.4 1.4-1.1 2.8-2 3.2-2 .3 0 1.6-1.1 2.9-2.5 1.3-1.4 2.7-2.5 3.1-2.5.4 0 2-1 3.5-2.3 1.5-1.2 3.9-3 5.4-4.1 1.4-1 2.3-2.3 1.9-2.9-.3-.6-.1-.7.6-.3 1.4.9 6.3-2.8 5.3-3.9-.4-.5-.2-.6.4-.2 1.5.8 18.6-12.1 17.8-13.5-.4-.7-.3-.8.5-.4 1.5.9 6.4-2.1 5.6-3.4-.3-.6 0-.7.8-.5.7.3 2.2-.3 3.2-1.5 1-1.1 2.4-2 3.2-2 .7 0 1.3-.4 1.3-.9 0-.4 2.5-2.5 5.5-4.5s5.5-4.1 5.5-4.8c0-.6.3-.9.6-.6 1.1 1.1 13.9-9.3 13.6-11-.2-1.5-.1-1.5.7-.2.9 1.3 1.4 1.2 3.3-.8 2.7-2.6 3.2-2.7 4.8-.7zm-295.3 74c0 .8-.4 1.2-.9.9-.5-.3-.6-1-.3-1.5.9-1.3 1.2-1.1 1.2.6zm408 120c0 .8-.4 1.2-.9.9-.5-.3-.6-1-.3-1.5.9-1.3 1.2-1.1 1.2.6zm-262.6 52.2c1.3 1.6 1.2 1.7-.3.4-1-.7-1.8-1.5-1.8-1.7 0-.8.8-.3 2.1 1.3z"/></svg>